<?xml version="1.0" encoding="UTF-8" standalone="no"?>
<!-- Created with Inkscape (http://www.inkscape.org/) -->

<svg
   xmlns:dc="http://purl.org/dc/elements/1.1/"
   xmlns:cc="http://creativecommons.org/ns#"
   xmlns:rdf="http://www.w3.org/1999/02/22-rdf-syntax-ns#"
   xmlns:svg="http://www.w3.org/2000/svg"
   xmlns="http://www.w3.org/2000/svg"
   xmlns:sodipodi="http://sodipodi.sourceforge.net/DTD/sodipodi-0.dtd"
   xmlns:inkscape="http://www.inkscape.org/namespaces/inkscape"
   width="57.094635mm"
   height="22.128231mm"
   viewBox="0 0 202.30382 78.407118"
   id="svg4244"
   version="1.1"
   inkscape:version="0.91 r13725"
   sodipodi:docname="logo_website.svg">
  <defs
     id="defs4246" />
  <sodipodi:namedview
     id="base"
     pagecolor="#ffffff"
     bordercolor="#666666"
     borderopacity="1.0"
     inkscape:pageopacity="0.0"
     inkscape:pageshadow="2"
     inkscape:zoom="0.49497475"
     inkscape:cx="104.01864"
     inkscape:cy="-112.47173"
     inkscape:document-units="px"
     inkscape:current-layer="layer1"
     showgrid="false"
     inkscape:window-width="1920"
     inkscape:window-height="1017"
     inkscape:window-x="-8"
     inkscape:window-y="-8"
     inkscape:window-maximized="1"
     showguides="true"
     inkscape:guide-bbox="true"
     fit-margin-top="0"
     fit-margin-left="0"
     fit-margin-right="0"
     fit-margin-bottom="0">
    <sodipodi:guide
       position="-177.48621,661.5969"
       orientation="0,1"
       id="guide3397" />
    <sodipodi:guide
       position="-246.17658,744.42939"
       orientation="0,1"
       id="guide3399" />
  </sodipodi:namedview>
  <metadata
     id="metadata4249">
    <rdf:RDF>
      <cc:Work
         rdf:about="">
        <dc:format>image/svg+xml</dc:format>
        <dc:type
           rdf:resource="http://purl.org/dc/dcmitype/StillImage" />
        <dc:title></dc:title>
      </cc:Work>
    </rdf:RDF>
  </metadata>
  <g
     inkscape:label="Layer 1"
     inkscape:groupmode="layer"
     id="layer1"
     transform="translate(-284.56238,-544.58722)">
    <g
       transform="translate(243.9662,444.09434)"
       id="g278">
      <g
         id="XMLID_2_">
        <g
           id="g281">
          <polygon
             style="fill:#80caa5"
             points="217.5,150.6 242.3,150.6 242.4,150.6 242.4,178.4 241.6,178.4 241.6,177.7 216.3,156.7 216.3,156.4 216.5,156.4 216.5,150.9 "
             id="polygon283" />
          <polygon
             style="fill:#f59db2"
             points="204.3,133.3 242.4,133.3 242.4,150.6 242.3,150.6 217.5,150.6 216.5,150.9 216.3,150.9 216.3,150.6 204.3,133.9 "
             id="polygon285" />
          <polygon
             style="fill:#fbb57f"
             points="242.4,101.4 242.4,127.8 216.5,127.8 216.5,123.4 216.3,123.4 216.3,122.5 216.3,101.9 216.3,101.4 "
             id="polygon287" />
          <polygon
             style="fill:#fcec98"
             points="241.6,177.7 241.6,178.4 172,178.4 172,177.7 215.9,156.7 215.9,156.4 216.3,156.4 216.3,156.7 "
             id="polygon289" />
          <polygon
             style="fill:#aadff1"
             points="203.3,150.9 203.3,133.3 204.3,133.3 204.3,133.9 216.3,150.6 216.3,150.9 "
             id="polygon291" />
          <polygon
             style="fill:#aadff1"
             points="216.3,101.9 216.3,122.5 216.3,123.4 189.6,123.4 189.5,123.5 189.3,123.4 189.1,123.1 189.3,122.9 215.9,101.9 "
             id="polygon293" />
          <polygon
             style="fill:#fcec98"
             points="216.3,101.9 215.9,101.9 189.3,122.9 189.1,123.1 172,101.9 172,101.4 216.3,101.4 "
             id="polygon295" />
          <polygon
             style="fill:#fbb57f"
             points="215.9,156.7 172,177.7 189,156.2 189.3,155.9 189.3,155.9 189.6,156.4 215.9,156.4 "
             id="polygon297" />
          <polygon
             style="fill:#80caa5"
             points="189.1,123.1 189.3,123.4 189.5,123.5 181.3,139.9 180.6,139.8 151.8,139.8 151.7,139.7 171.4,101.4 172,101.4 172,101.9 "
             id="polygon299" />
          <polygon
             style="fill:#aadff1"
             points="151.7,139.7 151.8,139.8 180.6,139.8 181.3,139.9 189.3,155.9 189.3,155.9 189,156.2 188.6,155.9 151.8,140.2 151.8,140.2 151.6,139.9 "
             id="polygon301" />
          <polygon
             style="fill:#f59db2"
             points="172,177.7 172,178.4 171.4,178.4 151.8,140.2 151.8,140.2 188.6,155.9 189,156.2 "
             id="polygon303" />
          <polygon
             style="fill:#80caa5"
             points="137.9,177.7 137.9,178.4 110.9,178.4 110.9,177.7 111.3,177.7 126.3,148.5 126.9,148.3 137.3,177.7 "
             id="polygon305" />
          <polygon
             style="fill:#fcec98"
             points="137.9,101.4 137.9,177.7 137.3,177.7 126.9,148.3 119.4,126.9 120.3,126.6 137.3,101.9 137.3,101.4 "
             id="polygon307" />
          <polygon
             style="fill:#aadff1"
             points="120.3,126.6 119.4,126.9 110.6,101.9 110.6,101.4 137.3,101.4 137.3,101.9 "
             id="polygon309" />
          <polygon
             style="fill:#f59db2"
             points="126.3,148.5 111.3,177.7 110.9,177.7 110.9,137.1 110.9,136.6 110.1,136.6 110.1,101.9 110.1,101.4 110.6,101.4 110.6,101.9 119.4,126.9 126.9,148.3 "
             id="polygon311" />
          <polygon
             style="fill:#aadff1"
             points="110.1,136.6 110.9,136.6 110.9,137.1 109.8,137.1 100.4,148 100.3,147.9 89.4,137.1 89.4,136.6 109.6,136.6 "
             id="polygon313" />
          <polygon
             style="fill:#fbb57f"
             points="110.1,101.4 110.1,101.9 110.1,136.6 109.6,136.6 89.4,125.7 88.4,125.1 89.1,124.5 89.5,125 109.8,101.4 "
             id="polygon315" />
          <polygon
             style="fill:#fcec98"
             points="109.6,136.6 89.4,136.6 69.1,136.6 68.9,136.6 68.9,113.4 69.5,113.4 88.4,125.1 89.4,125.7 "
             id="polygon317" />
          <polygon
             style="fill:#80caa5"
             points="89.4,137.1 100.3,147.9 100.4,148 89.5,160.8 78.5,148 "
             id="polygon319" />
          <polygon
             style="fill:#fbb57f"
             points="69.1,137.1 69.1,136.6 89.4,136.6 89.4,137.1 78.5,148 "
             id="polygon321" />
          <polygon
             style="fill:#f59db2"
             points="88.4,125.1 69.5,113.4 68.9,113.4 68.9,101.9 68.9,101.4 69.1,101.4 89.1,124.5 "
             id="polygon323" />
          <polygon
             style="fill:#aadff1"
             points="49.2,121.6 68.9,101.9 68.9,113.4 68.9,136.6 69.1,136.6 69.1,137.1 68,137.1 68,177.7 67.5,177.7 58.4,151.4 48.1,122 "
             id="polygon325" />
          <polygon
             style="fill:#80caa5"
             points="68.9,101.9 49.2,121.6 48.1,122 41.1,101.9 41.1,101.9 41.1,101.4 68.9,101.4 "
             id="polygon327" />
          <polygon
             style="fill:#f59db2"
             points="68,177.7 68,178.4 41.1,178.4 41.1,177.7 41.1,177.7 57.5,151.7 58.4,151.4 67.5,177.7 "
             id="polygon329" />
          <polygon
             style="fill:#fbb57f"
             points="58.4,151.4 57.5,151.7 41.1,177.7 41.1,177.7 41.1,101.9 41.1,101.9 48.1,122 "
             id="polygon331" />
        </g>
        <g
           id="g333">
          <polyline
             style="fill:none;stroke:#231f20;stroke-miterlimit:10"
             stroke-miterlimit="10"
             points="78.5,148 69.1,137.1 68,137.1 68,177.7 68,178.4       41.1,178.4 41.1,177.7 41.1,101.9 41.1,101.4 68.9,101.4 69.1,101.4 89.1,124.5 89.5,125 109.8,101.4 110.1,101.4     "
             id="polyline335" />
          <polyline
             style="fill:none;stroke:#fbb57f;stroke-miterlimit:10"
             stroke-miterlimit="10"
             points="100.4,148 89.5,160.8 78.5,148     "
             id="polyline337" />
          <polyline
             style="fill:none;stroke:#231f20;stroke-miterlimit:10"
             stroke-miterlimit="10"
             points="110.6,101.4 137.3,101.4 137.9,101.4 137.9,177.7       137.9,178.4 110.9,178.4 110.9,177.7 110.9,137.1 109.8,137.1 100.4,148     "
             id="polyline339" />
          <line
             style="fill:none;stroke:#fbb57f;stroke-miterlimit:10"
             stroke-miterlimit="10"
             x1="110.1"
             y1="101.4"
             x2="110.6"
             y2="101.4"
             id="line341" />
          <polyline
             style="fill:none;stroke:#fbb57f;stroke-miterlimit:10"
             stroke-miterlimit="10"
             points="216.5,150.9 216.3,150.9 203.3,150.9 203.3,133.3       204.3,133.3     "
             id="polyline343" />
          <polyline
             style="fill:none;stroke:#231f20;stroke-miterlimit:10"
             stroke-miterlimit="10"
             points="216.3,156.4 216.5,156.4 216.5,150.9     "
             id="polyline345" />
          <line
             style="fill:none;stroke:#fbb57f;stroke-miterlimit:10"
             stroke-miterlimit="10"
             x1="215.89999"
             y1="156.39999"
             x2="216.3"
             y2="156.39999"
             id="line347" />
          <polyline
             style="fill:none;stroke:#231f20;stroke-miterlimit:10"
             stroke-miterlimit="10"
             points="151.7,139.7 171.4,101.4 172,101.4 216.3,101.4       242.4,101.4 242.4,127.8 216.5,127.8 216.5,123.4 216.3,123.4 189.6,123.4 189.5,123.5 181.3,139.9 189.3,155.9 189.6,156.4       215.9,156.4     "
             id="polyline349" />
          <polyline
             style="fill:none;stroke:#fbb57f;stroke-miterlimit:10"
             stroke-miterlimit="10"
             points="151.8,140.2 151.6,139.9 151.7,139.7     "
             id="polyline351" />
          <polyline
             style="fill:none;stroke:#231f20;stroke-miterlimit:10"
             stroke-miterlimit="10"
             points="241.6,178.4 172,178.4 171.4,178.4 151.8,140.2     "
             id="polyline353" />
          <polyline
             style="fill:none;stroke:#fbb57f;stroke-miterlimit:10"
             stroke-miterlimit="10"
             points="242.4,150.6 242.4,178.4 241.6,178.4     "
             id="polyline355" />
          <polyline
             style="fill:none;stroke:#231f20;stroke-miterlimit:10"
             stroke-miterlimit="10"
             points="204.3,133.3 242.4,133.3 242.4,150.6     "
             id="polyline357" />
          <polyline
             style="fill:none;stroke:#f59db2;stroke-linecap:round;stroke-miterlimit:10;stroke-dasharray:0, 2"
             stroke-miterlimit="10"
             points="      67.5,136.6 68.9,136.6 69.1,136.6 89.4,136.6 109.6,136.6 110.1,136.6 110.9,136.6 111.3,136.6     "
             id="polyline359" />
          <polyline
             style="fill:none;stroke:#fbb57f;stroke-linecap:round;stroke-miterlimit:10;stroke-dasharray:0, 2"
             stroke-miterlimit="10"
             points="      68.9,101.9 68.9,113.4 68.9,136.6     "
             id="polyline361" />
          <line
             style="fill:none;stroke:#fcec98;stroke-linecap:round;stroke-miterlimit:10;stroke-dasharray:0, 2"
             stroke-miterlimit="10"
             x1="110.1"
             y1="101.9"
             x2="110.1"
             y2="136.60001"
             id="line363" />
          <line
             style="fill:none;stroke:#80caa5;stroke-linecap:round;stroke-miterlimit:10;stroke-dasharray:0, 2"
             stroke-miterlimit="10"
             x1="89.400002"
             y1="125.7"
             x2="109.6"
             y2="136.60001"
             id="line365" />
          <polyline
             style="fill:none;stroke:#fcec98;stroke-linecap:round;stroke-miterlimit:10;stroke-dasharray:0, 2"
             stroke-miterlimit="10"
             points="      41.1,101.9 48.1,122 58.4,151.4 67.5,177.7     "
             id="polyline367" />
          <line
             style="fill:none;stroke:#80caa5;stroke-linecap:round;stroke-miterlimit:10;stroke-dasharray:0, 2"
             stroke-miterlimit="10"
             x1="41.099998"
             y1="177.7"
             x2="57.5"
             y2="151.7"
             id="line369" />
          <line
             style="fill:none;stroke:#fbb57f;stroke-linecap:round;stroke-miterlimit:10;stroke-dasharray:0, 2"
             stroke-miterlimit="10"
             x1="89.400002"
             y1="137.10001"
             x2="100.3"
             y2="147.89999"
             id="line371" />
          <polyline
             style="fill:none;stroke:#aadff1;stroke-linecap:round;stroke-miterlimit:10;stroke-dasharray:0, 2"
             stroke-miterlimit="10"
             points="      89.4,137.1 78.5,148 78.4,148.1     "
             id="polyline373" />
          <line
             style="fill:none;stroke:#f59db2;stroke-linecap:round;stroke-miterlimit:10;stroke-dasharray:0, 2"
             stroke-miterlimit="10"
             x1="68.900002"
             y1="101.9"
             x2="49.200001"
             y2="121.6"
             id="line375" />
          <polyline
             style="fill:none;stroke:#fbb57f;stroke-linecap:round;stroke-miterlimit:10;stroke-dasharray:0, 2"
             stroke-miterlimit="10"
             points="      137.3,177.7 126.9,148.3 119.4,126.9 110.6,101.9     "
             id="polyline377" />
          <line
             style="fill:none;stroke:#f59db2;stroke-linecap:round;stroke-miterlimit:10;stroke-dasharray:0, 2"
             stroke-miterlimit="10"
             x1="120.3"
             y1="126.6"
             x2="137.3"
             y2="101.9"
             id="line379" />
          <line
             style="fill:none;stroke:#aadff1;stroke-linecap:round;stroke-miterlimit:10;stroke-dasharray:0, 2"
             stroke-miterlimit="10"
             x1="111.3"
             y1="177.7"
             x2="126.3"
             y2="148.5"
             id="line381" />
          <line
             style="fill:none;stroke:#aadff1;stroke-linecap:round;stroke-miterlimit:10;stroke-dasharray:0, 2"
             stroke-miterlimit="10"
             x1="88.400002"
             y1="125.1"
             x2="69.5"
             y2="113.4"
             id="line383" />
          <line
             style="fill:none;stroke:#fcec98;stroke-linecap:round;stroke-miterlimit:10;stroke-dasharray:0, 2"
             stroke-miterlimit="10"
             x1="217.5"
             y1="150.60001"
             x2="242.3"
             y2="150.60001"
             id="line385" />
          <line
             style="fill:none;stroke:#fbb57f;stroke-linecap:round;stroke-miterlimit:10;stroke-dasharray:0, 2"
             stroke-miterlimit="10"
             x1="216.3"
             y1="150.60001"
             x2="204.3"
             y2="133.89999"
             id="line387" />
          <polyline
             style="fill:none;stroke:#aadff1;stroke-linecap:round;stroke-miterlimit:10;stroke-dasharray:0, 2"
             stroke-miterlimit="10"
             points="      189.3,123.4 189.1,123.1 172,101.9     "
             id="polyline389" />
          <polyline
             style="fill:none;stroke:#80caa5;stroke-linecap:round;stroke-miterlimit:10;stroke-dasharray:0, 2"
             stroke-miterlimit="10"
             points="      189.3,155.9 189,156.2 172,177.7     "
             id="polyline391" />
          <line
             style="fill:none;stroke:#fcec98;stroke-linecap:round;stroke-miterlimit:10;stroke-dasharray:0, 2"
             stroke-miterlimit="10"
             x1="151.8"
             y1="139.8"
             x2="180.60001"
             y2="139.8"
             id="line393" />
          <line
             style="fill:none;stroke:#f59db2;stroke-linecap:round;stroke-miterlimit:10;stroke-dasharray:0, 2"
             stroke-miterlimit="10"
             x1="216.3"
             y1="156.7"
             x2="241.60001"
             y2="177.7"
             id="line395" />
          <polyline
             style="fill:none;stroke:#80caa5;stroke-linecap:round;stroke-miterlimit:10;stroke-dasharray:0, 2"
             stroke-miterlimit="10"
             points="      216.3,122.5 216.3,101.9 216.3,101.4 216.3,101     "
             id="polyline397" />
          <line
             style="fill:none;stroke:#f59db2;stroke-linecap:round;stroke-miterlimit:10;stroke-dasharray:0, 2"
             stroke-miterlimit="10"
             x1="189.3"
             y1="122.9"
             x2="215.89999"
             y2="101.9"
             id="line399" />
          <line
             style="fill:none;stroke:#aadff1;stroke-linecap:round;stroke-miterlimit:10;stroke-dasharray:0, 2"
             stroke-miterlimit="10"
             x1="172"
             y1="177.7"
             x2="215.89999"
             y2="156.7"
             id="line401" />
          <line
             style="fill:none;stroke:#fbb57f;stroke-linecap:round;stroke-miterlimit:10;stroke-dasharray:0, 2"
             stroke-miterlimit="10"
             x1="188.60001"
             y1="155.89999"
             x2="151.8"
             y2="140.2"
             id="line403" />
        </g>
      </g>
    </g>
  </g>
</svg>
